<svg width="52" height="53" viewBox="0 0 52 53" fill="none" xmlns="http://www.w3.org/2000/svg">
<g clip-path="url(#clip0_53_100)">
<path d="M10.4 52.2812C4.65156 52.2812 0 46.9416 0 40.3688C0 33.7961 4.66172 28.4565 10.4 28.4565C14.0867 28.4565 17.4992 30.6901 19.368 34.3313C19.7844 35.1339 19.5508 36.1693 18.8398 36.6463C18.1391 37.1232 17.2352 36.8556 16.8188 36.0413C14.7367 31.9814 10.1766 30.6203 6.63203 33.0051C3.0875 35.3899 1.89922 40.6131 3.98125 44.6731C6.06328 48.7331 10.6234 50.0941 14.168 47.7093C15.2039 47.0114 16.0773 46.0458 16.707 44.8825C17.1437 44.0914 18.0477 43.8471 18.7484 44.3474C19.4391 44.8476 19.6523 45.8829 19.2156 46.6856C17.3164 50.1756 13.9852 52.2928 10.4 52.2812ZM50.5273 38.3447H25.8273C25.0148 38.3214 24.3648 37.542 24.3852 36.6114C24.4055 35.7156 25.0352 34.9827 25.8273 34.9595H50.5172C51.3297 34.9827 51.9797 35.7621 51.9594 36.6928C51.9391 37.6002 51.3094 38.3214 50.5273 38.3447ZM41.2648 45.7782H25.8273C25.0148 45.755 24.3648 44.9756 24.3852 44.0449C24.4055 43.1492 25.0352 42.4163 25.8273 42.393H41.2648C42.0773 42.4163 42.7273 43.1957 42.707 44.1263C42.6867 45.0221 42.0469 45.755 41.2648 45.7782Z" fill="#00045C"/>
<path d="M10.4 22.4075C15.3248 22.4075 19.3172 17.8346 19.3172 12.1936C19.3172 6.55264 15.3248 1.97974 10.4 1.97974C5.47517 1.97974 1.48281 6.55264 1.48281 12.1936C1.48281 17.8346 5.47517 22.4075 10.4 22.4075Z" fill="#2A43D4"/>
<path d="M10.4 24.1059C4.65156 24.1059 0 18.7663 0 12.1936C0 5.62085 4.65156 0.28125 10.4 0.28125C16.1484 0.28125 20.8 5.60921 20.8 12.1936C20.7898 18.7663 16.1383 24.0942 10.4 24.1059ZM10.4 3.66649C6.28672 3.66649 2.95547 7.48215 2.95547 12.1936C2.95547 16.905 6.28672 20.7206 10.4 20.7206C14.5133 20.7206 17.8445 16.905 17.8445 12.1936C17.8344 7.48215 14.5031 3.67812 10.4 3.66649ZM50.5273 10.1694H25.8273C25.0148 10.1461 24.3648 9.36671 24.3852 8.43606C24.4055 7.54031 25.0352 6.80743 25.8273 6.78416H50.5172C51.3297 6.80743 51.9797 7.58684 51.9594 8.51749C51.9391 9.42488 51.3094 10.1461 50.5273 10.1694ZM41.2648 17.5913H25.8273C25.0148 17.5681 24.3648 16.7886 24.3852 15.858C24.4055 14.9622 25.0352 14.2293 25.8273 14.2061H41.2648C42.0773 14.2293 42.7273 15.0088 42.707 15.9394C42.6867 16.8468 42.0469 17.5681 41.2648 17.5913Z" fill="#00045C"/>
</g>
<defs>
<clipPath id="clip0_53_100">
<rect width="52" height="52" fill="white" transform="translate(0 0.28125)"/>
</clipPath>
</defs>
</svg>
