<svg width="40" height="40" viewBox="0 0 40 40" fill="none" xmlns="http://www.w3.org/2000/svg">
<g id="ic:baseline-telegram">
<path id="Vector" d="M20 3.33337C10.8 3.33337 3.33337 10.8 3.33337 20C3.33337 29.2 10.8 36.6667 20 36.6667C29.2 36.6667 36.6667 29.2 36.6667 20C36.6667 10.8 29.2 3.33337 20 3.33337ZM27.7334 14.6667C27.4834 17.3 26.4 23.7 25.85 26.65C25.6167 27.9 25.15 28.3167 24.7167 28.3667C23.75 28.45 23.0167 27.7334 22.0834 27.1167C20.6167 26.15 19.7834 25.55 18.3667 24.6167C16.7167 23.5334 17.7834 22.9334 18.7334 21.9667C18.9834 21.7167 23.25 17.8334 23.3334 17.4834C23.345 17.4304 23.3434 17.3753 23.3289 17.323C23.3144 17.2708 23.2873 17.2228 23.25 17.1834C23.15 17.1 23.0167 17.1334 22.9 17.15C22.75 17.1834 20.4167 18.7334 15.8667 21.8C15.2 22.25 14.6 22.4834 14.0667 22.4667C13.4667 22.45 12.3334 22.1334 11.4834 21.85C10.4334 21.5167 9.61671 21.3334 9.68337 20.75C9.71671 20.45 10.1334 20.15 10.9167 19.8334C15.7834 17.7167 19.0167 16.3167 20.6334 15.65C25.2667 13.7167 26.2167 13.3834 26.85 13.3834C26.9834 13.3834 27.3 13.4167 27.5 13.5834C27.6667 13.7167 27.7167 13.9 27.7334 14.0334C27.7167 14.1334 27.75 14.4334 27.7334 14.6667Z" fill="#060E29"/>
</g>
</svg>
